<?xml version="1.0" encoding="UTF-8" standalone="no"?>
<!-- Created with Inkscape (http://www.inkscape.org/) -->

<svg
   xmlns:dc="http://purl.org/dc/elements/1.1/"
   xmlns:cc="http://creativecommons.org/ns#"
   xmlns:rdf="http://www.w3.org/1999/02/22-rdf-syntax-ns#"
   xmlns:svg="http://www.w3.org/2000/svg"
   xmlns="http://www.w3.org/2000/svg"
   xmlns:sodipodi="http://sodipodi.sourceforge.net/DTD/sodipodi-0.dtd"
   xmlns:inkscape="http://www.inkscape.org/namespaces/inkscape"
   version="1.1"
   id="svg869"
   width="757.47833"
   height="748.79736"
   viewBox="0 0 757.47833 748.79736"
   sodipodi:docname="A--A-II-0004-124v.svg"
   inkscape:version="0.92.2 (unknown)"
   inkscape:export-filename="/home/chr/Dokumente/GitHub/Schopf1397/progress/A--A-II-0004-124v.svg.png"
   inkscape:export-xdpi="96"
   inkscape:export-ydpi="96">
  <metadata
     id="metadata875">
    <rdf:RDF>
      <cc:Work
         rdf:about="">
        <dc:format>image/svg+xml</dc:format>
        <dc:type
           rdf:resource="http://purl.org/dc/dcmitype/StillImage" />
        <dc:title></dc:title>
      </cc:Work>
    </rdf:RDF>
  </metadata>
  <defs
     id="defs873" />
  <sodipodi:namedview
     pagecolor="#ffffff"
     bordercolor="#666666"
     borderopacity="1"
     objecttolerance="10"
     gridtolerance="10"
     guidetolerance="10"
     inkscape:pageopacity="0"
     inkscape:pageshadow="2"
     inkscape:window-width="1440"
     inkscape:window-height="855"
     id="namedview871"
     showgrid="false"
     inkscape:zoom="0.37379808"
     inkscape:cx="336.34242"
     inkscape:cy="367.17466"
     inkscape:window-x="0"
     inkscape:window-y="19"
     inkscape:window-maximized="1"
     inkscape:current-layer="svg869"
     fit-margin-top="20"
     fit-margin-left="20"
     fit-margin-right="20"
     fit-margin-bottom="20" />
  <path
     style="fill:#a83324;fill-opacity:1;stroke:none;stroke-width:1.33333337"
     d="m 23.779554,712.68568 c -3.39155,-8.91757 -7.18175,-22.05065 1.73396,-39.44025 4.90787,-9.45359 14.32634,-15.59609 24.04782,-17.96042 6.03162,-1.46693 12.6569,0.62245 18.37141,3.04664 5.60092,2.376 10.69404,6.25892 14.66094,10.87187 2.27813,2.64915 3.48056,6.07242 4.91232,9.25957 0.80444,1.79071 2.05626,5.51865 2.05626,5.51865 34.422386,-11.6461 68.568986,-28.01329 81.125616,-38.54006 48.58476,-40.73073 194.73114,-382.46965 244.545,-571.871796 -42.11977,-1.04649 -80.22591,-3.70082 -133.31807,-5.82784 -7.17768,0.42803 -11.54589,9.04605 -17.84076,15.69878 -5.74476,6.07135 -14.8583,9.53745 -23.2165,9.47448 -7.2376,-0.0545 -15.64277,-2.7103 -19.9779,-8.50619 -6.31426,-8.44193 -7.90067,-21.75976 -3.66451,-31.413307 3.79268,-8.64295 13.59605,-15.155978 22.91908,-16.6277 6.92659,-1.093424 14.3063,-0.407192 21.01379,1.688182 7.43947,2.324038 10.93728,11.633852 20.22826,11.727698 149.78046,10.108967 242.68004,12.684927 381.60567,-0.41997 10.71149,-0.84261 9.31478,-3.24233 9.1477,-6.39816 -1.42607,-26.93593 28.65681,-25.92014 41.82874,-18.29749 12.37208,7.15978 12.46557,30.64357 4.67399,42.627817 -5.32328,8.18776 -18.27194,10.45063 -27.91404,8.89926 -7.95094,-1.27927 -15.80712,-2.76756 -19.55461,-14.18816 -26.93151,3.39835 -51.87202,5.97088 -91.84087,10.84672 -2.65364,147.195226 12.16411,366.472976 42.96707,508.941966 1.37059,3.87556 4.06674,9.67134 7.60621,9.70731 6.19714,0.063 9.30006,0.27642 17.29769,-0.12333 21.96606,-1.0979 25.28852,-1.74802 29.52954,-5.77814 0.14602,-31.82454 14.96422,-30.1132 29.28779,-31.89464 10.10853,-1.25722 18.30204,9.94483 25.55315,16.76018 12.751,11.98472 2.90113,40.4957 -10.80653,51.37328 -8.98508,7.13002 -24.55482,5.12791 -34.40281,-0.75309 -5.10334,-3.0476 -8.7857,-14.41047 -8.7985,-15.51047 -126.37333,-12.43861 -424.21245,38.89512 -588.384526,93.57198 -3.86176,11.47707 -10.02797,19.88054 -20.64683,25.45979 -9.35865,4.81913 -20.1996,5.30162 -28.98718,2.35959 -7.4398,-2.4908 -13.4078,-7.43622 -15.75837,-14.28275 z M 487.29547,598.62751 c 15.62239,-1.47468 18.69221,-3.78436 22.17019,-10.53487 3.86681,-66.10694 5.835,-134.94157 7.71714,-199.39886 -28.29587,13.26657 -72.00753,36.77109 -97.04692,50.93384 -3.95035,47.90191 -5.10176,111.09955 -5.0514,158.37963 0.32355,4.95354 2.96151,7.74087 13.27828,6.74299 21.58202,-1.99611 40.47005,-4.37994 58.93271,-6.12273 z m 30.30672,-223.76092 c 0.48759,-6.03435 2.38354,-21.44587 1.29783,-29.33624 -33.84486,12.76894 -68.10694,31.97432 -95.29937,47.78574 -1.66221,7.07963 -3.18729,24.20503 -2.98662,34.01236 26.34799,-14.53365 82.12042,-41.94954 96.98816,-52.46186 z m 9.18701,-102.20423 c 1.59039,-4.63317 1.08381,-9.75194 1.28017,-14.77014 0,0 -7.9144,2.84898 -11.85531,4.31768 -27.38832,10.20709 -54.19651,19.92668 -81.93398,31.23405 -1.10282,9.0712 -3.46316,15.38957 -3.57897,23.05205 30.31056,-13.85304 72.59218,-32.22408 96.08809,-43.83364 z m 2.6083,-27.44018 c 2.69829,-47.01545 5.26621,-118.33247 5.24705,-171.071216 -22.45618,0.48797 -35.15743,-0.40789 -65.74367,-0.0769 -20.32675,87.717806 -27.18585,143.081106 -33.30147,202.581896 29.95262,-8.55428 70.14421,-22.04374 93.79809,-31.43378 z"
     id="path879-3"
     inkscape:connector-curvature="0"
     sodipodi:nodetypes="ccaaaacsccsaaasaccsaaacccsccasaacccscscccccscccccccacccccccc" />
</svg>
