<?xml version="1.0" encoding="UTF-8" standalone="no"?>
<!-- Created with Inkscape (http://www.inkscape.org/) -->

<svg
   xmlns:dc="http://purl.org/dc/elements/1.1/"
   xmlns:cc="http://creativecommons.org/ns#"
   xmlns:rdf="http://www.w3.org/1999/02/22-rdf-syntax-ns#"
   xmlns:svg="http://www.w3.org/2000/svg"
   xmlns="http://www.w3.org/2000/svg"
   xmlns:sodipodi="http://sodipodi.sourceforge.net/DTD/sodipodi-0.dtd"
   xmlns:inkscape="http://www.inkscape.org/namespaces/inkscape"
   version="1.1"
   id="svg869"
   width="705.74622"
   height="1086.6866"
   viewBox="0 0 705.74622 1086.6866"
   sodipodi:docname="A--A-II-0011-51v.svg"
   inkscape:version="0.92.3 (2405546, 2018-03-11)">
  <metadata
     id="metadata875">
    <rdf:RDF>
      <cc:Work
         rdf:about="">
        <dc:format>image/svg+xml</dc:format>
        <dc:type
           rdf:resource="http://purl.org/dc/dcmitype/StillImage" />
        <dc:title></dc:title>
      </cc:Work>
    </rdf:RDF>
  </metadata>
  <defs
     id="defs873" />
  <sodipodi:namedview
     pagecolor="#ffffff"
     bordercolor="#666666"
     borderopacity="1"
     objecttolerance="10"
     gridtolerance="10"
     guidetolerance="10"
     inkscape:pageopacity="0"
     inkscape:pageshadow="2"
     inkscape:window-width="1440"
     inkscape:window-height="848"
     id="namedview871"
     showgrid="false"
     inkscape:zoom="0.39742805"
     inkscape:cx="282.45751"
     inkscape:cy="579.74959"
     inkscape:window-x="0"
     inkscape:window-y="25"
     inkscape:window-maximized="1"
     inkscape:current-layer="svg869"
     showguides="true"
     inkscape:guide-bbox="true"
     fit-margin-top="0"
     fit-margin-left="0"
     fit-margin-right="0"
     fit-margin-bottom="0" />
  <path
     style="fill:#ca0000;fill-opacity:1;stroke-width:1.33333337"
     d="m 99.439415,6.8034497 c -0.51227,1.334946 0.679315,3.5740453 3.226565,6.0644533 15.54892,15.430596 19.81227,53.530422 23.83733,73.847364 3.59049,59.401833 72.76476,21.950623 70.07422,-9.14844 -0.32233,-3.72569 -1.34137,-11.029141 2.05434,-11.029141 34.20465,1.284697 64.80781,3.167261 95.60972,4.978361 C 277.43852,296.05115 231.46697,619.30882 99.638065,881.42816 c -3.00208,5.88462 -5.30859,5.9121 -5.30859,0.0625 -11.08237,-39.93493 -49.78885,-33.33348 -67.73438,-20.39062 -13.31758,10.87815 -26.77857974,31.58276 -18.4453097,48.17773 15.8166497,51.31841 28.1869997,87.97701 0.0625,148.82233 -0.53734,2.1722 -2.65173,7.0569 -4.69726,10.8554 -2.54388004,4.7239 -3.64998004,8.6201 -3.50196004,12.3321 0.22577,5.6617 2.07710004,7.2938 3.23828004,2.8535 0.37027,-1.416 1.40281,-2.2956 2.29493,-1.9532 0.97576,0.3744 3.10179,-2.7159 5.3359297,-7.7578 2.04263,-4.6098 4.46337,-9.2808 5.37891,-10.3808 29.92501,-52.8301 56.07321,-94.04892 85.193365,-146.07231 87.04679,-162.49817 146.32503,-329.61303 183.03054,-494.18081 47.27076,-7.84919 93.58318,-12.06931 145.63938,-13.3856 -2.05093,94.22277 -6.02,182.56397 -3.59766,287.13868 -0.96732,2.52858 -2.77276,3.19498 -5.96679,4.36718 -34.66887,12.72341 -61.95873,19.55202 -115.58203,43.13282 -0.01,0.55 -0.37495,2.32831 -0.81055,3.95312 -0.73656,2.74748 -0.36378,2.94629 5.32812,2.83203 98.46987,-33.70297 178.57975,-60.33818 247.18946,-25.22851 6.63415,3.71159 5.94144,19.25721 9.99609,20.49804 6.28252,0.80546 9.70605,-6.60778 12.28711,-11.61914 1.92042,-3.72866 1.65927,-9.27026 1.73047,-12.46289 -17.8526,-181.38042 -45.63657,-423.18127 -51.31836,-648.722653 45.43053,-2.27454 109.80805,-3.5368 169.8794,-7.484383 8.91769,-0.586024 9.09514,-16.536516 -2.31499,-16.188399 -224.24464,6.841588 -341.49809,8.952671 -509.21089,-3.147539 -2.9402,-3.980002 -1.77054,-6.623543 -4.55131,-7.695243 -2.36669,-0.912113 -5.54737,1.35721 -7.26705,2.25579 C 137.82786,61.941331 136.33931,4.2300097 122.8027,0.50071271 116.14429,-1.3336613 101.72254,2.1218467 99.439415,6.8034497 Z M 437.897,73.625147 c -4.89848,67.628663 -7.3746,171.522233 -9.11223,245.333993 -34.36882,-2.62871 -93.98851,-1.77534 -129.06467,-0.2966 16.01112,-110.42433 29.57168,-220.000083 34.37358,-245.372893 44.22178,1.00966 67.2289,1.26391 103.80332,0.3355 z"
     id="path879"
     inkscape:connector-curvature="0"
     sodipodi:nodetypes="cccsccccccccsccccccccscccccsccsscasscccccc" />
</svg>
