<?xml version="1.0" encoding="UTF-8" standalone="no"?>
<!-- Created with Inkscape (http://www.inkscape.org/) -->

<svg
   xmlns:dc="http://purl.org/dc/elements/1.1/"
   xmlns:cc="http://creativecommons.org/ns#"
   xmlns:rdf="http://www.w3.org/1999/02/22-rdf-syntax-ns#"
   xmlns:svg="http://www.w3.org/2000/svg"
   xmlns="http://www.w3.org/2000/svg"
   xmlns:sodipodi="http://sodipodi.sourceforge.net/DTD/sodipodi-0.dtd"
   xmlns:inkscape="http://www.inkscape.org/namespaces/inkscape"
   width="288.47394mm"
   height="235.66936mm"
   viewBox="0 0 288.47394 235.66936"
   version="1.1"
   id="svg8"
   inkscape:version="0.92.2 (unknown)"
   sodipodi:docname="V--A-II-0006-172v.svg">
  <defs
     id="defs2" />
  <sodipodi:namedview
     id="base"
     pagecolor="#ffffff"
     bordercolor="#666666"
     borderopacity="1.0"
     inkscape:pageopacity="0.0"
     inkscape:pageshadow="2"
     inkscape:zoom="0.24748737"
     inkscape:cx="-611.70663"
     inkscape:cy="120.69157"
     inkscape:document-units="mm"
     inkscape:current-layer="layer1"
     showgrid="false"
     inkscape:window-width="1440"
     inkscape:window-height="855"
     inkscape:window-x="0"
     inkscape:window-y="19"
     inkscape:window-maximized="1"
     fit-margin-top="0"
     fit-margin-left="0"
     fit-margin-right="0"
     fit-margin-bottom="0" />
  <metadata
     id="metadata5">
    <rdf:RDF>
      <cc:Work
         rdf:about="">
        <dc:format>image/svg+xml</dc:format>
        <dc:type
           rdf:resource="http://purl.org/dc/dcmitype/StillImage" />
        <dc:title />
      </cc:Work>
    </rdf:RDF>
  </metadata>
  <g
     inkscape:label="Ebene 1"
     inkscape:groupmode="layer"
     id="layer1"
     transform="translate(-386.11345,-134.73386)">
    <path
       style="fill:#000000;stroke:none;stroke-width:0.35277775"
       d="m 652.59684,134.73687 c -2.439,-0.0868 -4.4428,1.71937 -5.0808,3.65869 -1.1844,3.60067 4.808,8.53758 8.3525,7.71632 1.6754,-0.39125 1.9669,-0.59825 2.5575,-1.81229 2.1566,-4.18606 -0.806,-6.50964 -1.17,-6.982 -1.5755,-1.7951 -3.1957,-2.52865 -4.6592,-2.58072 z m -243.522,1.91358 c -1.1509,0.0223 -2.3177,0.46677 -3.2965,1.41903 -4.4961,3.82873 -1.8956,5.48667 -1.465,8.24446 0.1944,1.24474 0.6665,2.82716 1.7642,3.34243 4.1899,1.96669 8.4204,-4.34093 8.1871,-7.92975 -0.2034,-3.13071 -2.6579,-5.12533 -5.1898,-5.07617 z m 261.1246,1.07176 c -1.8241,0.0135 -3.4075,0.45781 -4.8312,1.56167 -1.7433,1.76841 -1.9854,2.93923 -1.5586,4.75423 1.0093,4.29178 5.7639,5.38439 10.1653,0.40256 1.0064,-1.13921 1.1359,-6.33956 -2.4733,-6.66161 -0.4475,-0.0399 -0.8813,-0.06 -1.3022,-0.0569 z m -278.8951,1.80558 c -6.5868,1.89193 -7.1991,15.53995 -0.1385,16.20625 4.4768,-1.08194 8.0654,-11.7546 4.27,-13.53096 -0.8007,-0.37188 -1.977,-1.12612 -2.6143,-1.67587 -0.6373,-0.54975 -1.3203,-0.99942 -1.5172,-0.99942 z m 271.4516,6.73034 c -0.7057,0.53437 -3.0043,0.84605 -4.2933,1.1808 -52.03948,22.61115 -190.89099,17.79004 -253.5405,3.75275 -3.7374,-1.11385 0.8002,6.06073 2.7646,7.11946 68.9352,22.76557 91.88385,107.41996 103.2816,164.1321 3.5421,14.9762 6.4217,23.10528 9.7017,32.07969 0.2835,2.41158 -2.034,2.73807 -3.4044,2.86598 -1.2908,0.12047 -2.3951,0.0464 -3.9295,0.0625 -4.4727,-10.14744 -16.08057,-25.47911 -29.1129,-31.14694 -0.6941,-0.30187 -1.7057,-0.50623 -2.2707,-0.003 -0.6032,0.53772 -0.615,1.67572 -0.2747,2.40871 0.2657,0.57228 1.4712,0.9945 1.5749,1.04999 12.6649,3.8414 26.67853,28.13813 24.6244,28.2597 -6.71261,0.39726 -13.33538,0.89863 -17.47544,0.81781 -1.11875,-0.0218 -7.262,-0.58387 -3.78317,-3.55342 4.19108,-3.57753 -1.01726,-14.24093 -9.89176,-10.46743 -13.1027,5.57136 -7.91291,12.68659 -16.04467,18.75564 -2.30075,1.71714 -9.62696,5.40623 -9.62696,6.60033 0,0.49567 2.1111,0.12913 2.9198,-0.50695 6.2797,-2.68318 18.96115,-6.19085 24.82595,-6.22099 16.3622,-0.0841 27.70685,-0.1594 46.96135,-0.47173 3.5642,5.55986 9.0625,4.57466 12.0515,-1.35961 35.53475,0.91104 45.01469,1.08423 69.04195,3.17471 0.77628,0.0675 0.91025,-0.64983 1.41005,-1.21359 0.70005,-0.89861 0.9191,-2.95085 -1.3358,-2.54196 -5.5226,-0.4565 -8.8622,-7.96291 -10.5839,-11.84062 -3.2124,-7.25131 -8.2081,-7.04646 -12.6974,-5.86941 -3.1334,0.92678 -5.3271,3.82653 -6.2482,7.79383 -0.4572,2.13008 -0.3987,4.52087 0.4279,7.04299 0.3032,0.30323 0.1498,0.45555 -0.617,0.61185 -6.60357,-0.0612 -16.73859,-0.62002 -27.8723,-1.15663 -2.2959,-13.93617 10.617,-35.61293 24.9681,-39.96954 0.7292,-0.17952 -2.6014,-1.72341 -2.6014,-1.72341 l -2.1906,1.1436 c -6.08,3.17017 -10.1261,5.91903 -14.0095,10.19369 -3.38,3.72068 -5.8756,8.2897 -7.6646,12.98732 -1.9302,5.06807 -3.0231,10.45123 -3.1461,17.02067 -2.6057,0.18081 -5.7206,-0.37725 -4.6281,-3.20601 24.5231,-70.15258 44.3627,-176.39982 117.2517,-203.0677 3.0293,-0.93595 6.5753,-1.57032 6.503,-4.13877 -0.011,-0.40696 -1.0656,-0.59686 -1.0656,-0.59686 z m 2.6004,5.10615 c -3.3906,-0.05 -6.2186,1.30666 -7.4838,6.09937 -1.5261,5.78057 -1.6905,6.04959 4.8783,4.99762 4.5504,-1.23377 7.8486,-5.35395 7.4837,-10.34769 -1.6796,-0.41338 -3.3371,-0.72659 -4.8782,-0.7493 z m -264.312,6.85333 c -3.9099,0.0314 -8.0819,3.29691 -5.0178,8.88421 0.9225,1.9478 1.681,3.56835 3.299,3.5605 3.4568,-0.0168 7.011,-3.32903 6.9742,-7.67498 -0.028,-3.29883 -2.5803,-4.79125 -5.2554,-4.76973 z m 154.5528,12.15377 c -0.9375,50.85395 -7.7568,150.49206 -15.4027,171.38231 2.1709,-26.83458 6.3287,-132.94115 6.5588,-170.81748 3.8209,-0.19208 5.9274,-0.40238 8.8439,-0.56483 z m -41.8093,0.0915 c 3.7966,0.20366 6.4161,0.3763 8.9973,0.60307 -1.3302,58.57806 -2.0694,122.95068 0.5075,170.46969 -9.9525,-38.92924 -9.5803,-124.77624 -9.5048,-171.07276 z m 27.637,0.46819 c -0.076,15.90571 -0.6877,34.17692 -0.5632,44.38437 -5.9344,0.10721 -7.5726,0.25647 -13.8612,0.35347 0.07,-14.48184 0.4899,-29.12183 0.8299,-44.5394 4.6069,-0.0598 9.8636,-0.17888 13.5945,-0.19844 z m -0.2697,49.42903 c 0.1247,2.97056 0.067,5.20241 0,6.93704 -3.002,0.12341 -10.0545,0.15166 -14.1511,0.0754 -0.1491,-2.36235 -0.081,-3.9086 0.03,-6.58668 4.7449,-0.15518 10.5607,-0.27604 14.1252,-0.42581 z m -3.776,29.89481 c 1.1259,-0.005 2.079,0.0109 2.7368,0.0512 0.2686,1.38957 -0.099,3.13101 0.049,4.84363 -3.6328,0.19856 -10.956,0.59143 -14.2157,0.44183 -0.049,-1.44495 -0.093,-3.86653 -0.04,-4.86792 3.1615,-0.25702 8.0924,-0.45418 11.4701,-0.4687 z m 2.9528,10.25312 c -0.8371,23.53495 -3.4636,69.55775 -4.9522,90.46838 -2.9267,3.21184 -7.4601,1.9441 -7.583,-0.58911 -0.1681,-22.20474 -2.2019,-78.0389 -1.8593,-89.25399 5.3511,-0.26894 9.6791,-0.5438 14.3945,-0.62528 z m 30.0193,45.53107 c -0.4791,0 -1.1475,0.33495 -1.4852,0.74466 -0.3376,0.40971 -0.8136,0.95564 -1.0578,1.21285 -0.7654,0.80614 -1.849,3.69347 -1.849,4.92683 0,1.23205 1.1218,2.38107 2.6459,2.71042 0.388,0.0839 0.8643,0.1158 1.0583,0.0708 0.194,-0.045 0.7589,-0.16992 1.2552,-0.2775 0.6253,-0.13551 1.1457,-0.6825 1.6945,-1.78129 1.5198,-3.04318 0.1629,-7.60677 -2.2619,-7.60677 z m -84.7209,5.04775 c -0.2462,-0.006 -0.4855,0.0699 -0.7788,0.22686 -1.3247,0.70898 -3.185,2.96538 -3.5651,4.32429 -0.3204,1.14518 -0.2378,1.59181 0.6583,3.56826 1.1277,2.4871 1.3926,2.73976 3.2164,3.06699 2.4446,0.43863 3.5736,-0.95634 3.8054,-4.70203 0.1418,-2.29175 0.069,-2.66587 -0.7596,-3.87522 -0.5043,-0.73622 -0.9173,-1.46329 -0.9173,-1.61592 0,-0.15262 -0.3768,-0.47944 -0.8376,-0.72606 -0.3223,-0.17242 -0.5754,-0.26098 -0.8217,-0.26717 z m -13.1194,3.57668 c -3.1796,-0.89638 -5.7586,5.228 -5.1406,8.47324 0.2476,1.30002 2.7747,2.31255 3.1627,2.39985 0.3881,0.0873 0.9168,0.10184 1.1752,0.032 0.2584,-0.0698 0.5992,-0.12713 0.757,-0.12713 2.8088,-1.42044 3.5036,-9.80317 0.046,-10.778 z m 109.1931,0.27994 c -0.036,-0.002 -0.073,-5e-5 -0.1131,0.004 -0.1913,0.0201 -0.4343,0.10595 -0.7798,0.24908 -0.578,0.23936 -1.231,0.32361 -1.4511,0.18758 -0.5947,-0.36752 -2.1025,1.19704 -2.8784,2.98638 -0.7956,1.83476 -0.5886,3.24866 0.353,4.36356 0.17,0.20138 0.5104,0.25782 0.7663,0.19482 2.0836,-0.51283 3.9264,-2.33621 4.7899,-4.30051 0.4295,-0.97695 0.9635,-1.85645 -0.035,-3.20136 -0.237,-0.31931 -0.4013,-0.47281 -0.6521,-0.48369 z m -9.2594,7.64501 c -0.8087,10e-4 -1.6879,0.26109 -2.2665,0.69453 -0.6486,0.48588 -0.791,1.48664 -0.7963,2.29702 -0.012,1.83041 0.017,4.56912 1.7306,5.21157 2.3514,0.88136 6.3985,-1.45923 6.4885,-3.82768 0,-0.74334 -2.4003,-2.75208 -3.5719,-3.86953 -0.3688,-0.35182 -0.9553,-0.5069 -1.5844,-0.50591 z m -91.8786,0.154 c -0.102,-0.002 -0.2048,0.0129 -0.3059,0.045 -1.0425,0.33086 -1.0004,2.06234 0.062,2.58073 0.8583,0.41855 1.7245,0.41126 1.6945,-0.0145 -0.01,-0.14552 -0.024,-0.54257 -0.03,-0.88212 -0.017,-0.9315 -0.7069,-1.71886 -1.4211,-1.72909 z m -4.0421,3.622 c -2.8923,0.0746 -5.4598,2.30501 -6.3237,4.69325 -0.6925,1.91457 0.4842,5.40967 2.5508,5.55005 11.2341,0.76311 8.9089,-6.62863 6.2487,-9.75496 -0.8305,-0.36101 -1.666,-0.50923 -2.4758,-0.48834 z"
       id="path826-7"
       inkscape:connector-curvature="0"
       sodipodi:nodetypes="sscccssccsssccsssscscccsscccccccaaccsssssccsccsccccccccccsscscccssccssccsscccccccccccccccsccccsccccsccsscascscsscacccccsccaccccacccccsccsccccscscccsscccsssssccsscc" />
  </g>
</svg>
